<svg width="64px" xmlns="http://www.w3.org/2000/svg" viewBox="0 0 229.89 180.22"><path class="cls-1" d="M253.52,61.87l.16,0c-.16.49-.3,1-.42,1.49Z" transform="translate(-52.73 -61.87)"/><path class="cls-1" d="M282.62,133.74l-.33,1.88a13.82,13.82,0,0,0,.17-1.91Z" transform="translate(-52.73 -61.87)"/><path class="cls-1" d="M282.28,135.68c0,.09,0,.17,0,.26s-.05.29-.08.44Z" transform="translate(-52.73 -61.87)"/><rect class="cls-1" x="76.08" y="71.14" width="38.59" height="175.06" rx="19.29" transform="translate(-101.25 -19.68) rotate(-20)"/><path class="cls-1" d="M142.52,197.07h0a17.73,17.73,0,0,1,4.52-19l16.13-15.17A17.74,17.74,0,0,1,192,169.77h0a17.73,17.73,0,0,1-4.52,19l-16.13,15.17A17.73,17.73,0,0,1,142.52,197.07Z" transform="translate(-52.73 -61.87)"/><rect class="cls-1" x="219.43" y="71.14" width="38.59" height="175.06" rx="19.29" transform="translate(356.06 327.55) rotate(-160)"/></svg>