<svg xmlns="http://www.w3.org/2000/svg" width="495.284" height="296.085" viewBox="0 0 495.284 296.085">
  <g id="undraw_login_re_4vu2" transform="translate(0.001 -0.001)">
    <path id="Exclusion_3" data-name="Exclusion 3" d="M-4038.8-277.838h-.006a137.318,137.318,0,0,1-19.4-1.383l2.19-1.943a26.942,26.942,0,0,1-7.348-9.951,23.633,23.633,0,0,1-1.834-12.112,21.412,21.412,0,0,1,5.026-11.216,20.375,20.375,0,0,1,4.67-4.025,17.883,17.883,0,0,1,5.685-2.324,16.15,16.15,0,0,1,3.4-.357,18.265,18.265,0,0,1,10.1,3.126,16.844,16.844,0,0,1,3.877,3.591,14.626,14.626,0,0,1,2.461,4.662A196.552,196.552,0,0,1-4027-332.731a64.553,64.553,0,0,1,8.061-21.261,47.836,47.836,0,0,1,14.536-14.717,44.95,44.95,0,0,1,19.376-7.009,40.86,40.86,0,0,1,4.418-.239,43,43,0,0,1,19.178,4.56,1.462,1.462,0,0,0-.289.185,224.476,224.476,0,0,0-31.211,30.993,224.351,224.351,0,0,0-35.155,58.747,1.034,1.034,0,0,0,.061,1.015,1.366,1.366,0,0,0,1.138.543,1.371,1.371,0,0,0,1.313-.866,223.5,223.5,0,0,1,27.293-48.415,223.52,223.52,0,0,1,38.4-40.176,1.049,1.049,0,0,0,.436-.961,39.066,39.066,0,0,1,11.379,9.7,37.127,37.127,0,0,1,5.215,8.974,39.251,39.251,0,0,1,2.623,10.052,36.254,36.254,0,0,1-3.148,20.237c-3.767,7.814-10.506,14.7-21.21,21.663a136.8,136.8,0,0,1-35.624,16.311A136.854,136.854,0,0,1-4038.8-277.838Zm79.354-92.494h0c-.648-.37-1.317-.728-1.988-1.064a1.293,1.293,0,0,1,.564-.129,1.473,1.473,0,0,1,1.425,1.193Z" transform="translate(4435.215 573.924)" fill="rgba(0,0,0,0.05)"/>
    <path id="Exclusion_4" data-name="Exclusion 4" d="M-3929.449-241.16h0a188.861,188.861,0,0,1-53.2-7.675,184.956,184.956,0,0,1-48.851-22.386,109.544,109.544,0,0,1-16.7-13,58.968,58.968,0,0,1-12.437-16.75,47.584,47.584,0,0,1-4.153-13.573,52.332,52.332,0,0,1-.17-14.223,53.927,53.927,0,0,1,3.6-13.807,51,51,0,0,1,7.163-12.325,53.66,53.66,0,0,1,15.629-13.328,1.438,1.438,0,0,0,.6,1.32,307.711,307.711,0,0,1,24.915,22.666,307.967,307.967,0,0,1,37.42,46.225,306.083,306.083,0,0,1,27.9,52.788,1.882,1.882,0,0,0,1.8,1.189,1.874,1.874,0,0,0,1.563-.746,1.42,1.42,0,0,0,.083-1.394,312.022,312.022,0,0,0-14.477-30.654,312.754,312.754,0,0,0-33.808-50.035,308.415,308.415,0,0,0-42.87-42.569,2.013,2.013,0,0,0-.4-.253,59.057,59.057,0,0,1,26.34-6.262,56.124,56.124,0,0,1,6.07.329,59.249,59.249,0,0,1,13.859,3.26A63.9,63.9,0,0,1-3976.809-366a65.691,65.691,0,0,1,19.965,20.213,75.432,75.432,0,0,1,6.817,14.08,107.042,107.042,0,0,1,4.255,15.121c2.085,9.944,3.09,20.166,4.1,31.538a20.083,20.083,0,0,1,3.38-6.4,23.139,23.139,0,0,1,5.325-4.932,25.083,25.083,0,0,1,13.867-4.293,22.179,22.179,0,0,1,4.665.49,24.566,24.566,0,0,1,7.808,3.192,27.986,27.986,0,0,1,6.415,5.528,29.406,29.406,0,0,1,6.9,15.405,32.464,32.464,0,0,1-2.52,16.636,36.994,36.994,0,0,1-10.093,13.666l3.009,2.669A182.868,182.868,0,0,1-3929.449-241.16Zm-109.115-127.071v0a2.024,2.024,0,0,1,1.958-1.639,1.774,1.774,0,0,1,.775.177c-.914.458-1.833.95-2.731,1.463Z" transform="translate(4065.36 537.063)" fill="rgba(0,0,0,0.05)"/>
    <path id="Exclusion_1" data-name="Exclusion 1" d="M-3884.571-83.5h-43.265V-296.7a81.088,81.088,0,0,0-15.711-48.358c-.334-.456-.731-.993-1.141-1.524a82.687,82.687,0,0,0-7.244-8.283,83.46,83.46,0,0,0-10.466-8.86c-.409-.291-.782-.552-1.142-.8a81.948,81.948,0,0,0-17.709-9.231c-.441-.167-.8-.3-1.144-.423a82.091,82.091,0,0,0-17.7-4.175c-.376-.052-.757-.092-1.147-.131a83.553,83.553,0,0,0-8.853-.472,83.579,83.579,0,0,0-8.854.472l-.209.021a83.159,83.159,0,0,1,9.063-.5h43.266A82.355,82.355,0,0,1-3884.57-296.7V-83.5Zm-207.786-213.965h0a81.5,81.5,0,0,1,3.992-24.666,81.5,81.5,0,0,1,11.716-22.924c.36-.49.745-1.011,1.144-1.526A82.162,82.162,0,0,1-4058-363.573c.368-.268.75-.541,1.135-.81a82.108,82.108,0,0,1,17.917-9.37c.42-.16.794-.3,1.142-.423a82.252,82.252,0,0,1,16.143-3.971C-4061.586-372.507-4091.979-337.822-4092.357-297.462Zm72.58-80.929v0c.222-.027.438-.05.6-.067Z" transform="translate(4240.09 378.957)" fill="rgba(0,0,0,0.05)"/>
    <path id="Exclusion_2" data-name="Exclusion 2" d="M-3927.836-83.5h-164.524V-296.7a81.5,81.5,0,0,1,3.994-25.433,81.488,81.488,0,0,1,11.716-22.924c.377-.513.749-1.016,1.144-1.526A82.145,82.145,0,0,1-4058-363.575c.368-.268.75-.541,1.135-.81a82.1,82.1,0,0,1,17.917-9.37c.421-.16.794-.3,1.142-.423a82.149,82.149,0,0,1,17.71-4.176c.369-.051.756-.091,1.13-.13h.013a83.716,83.716,0,0,1,8.854-.471,83.684,83.684,0,0,1,8.853.471c.377.039.766.08,1.147.133a82.1,82.1,0,0,1,17.7,4.175c.341.122.7.257,1.144.423a81.955,81.955,0,0,1,17.708,9.231c.4.272.78.541,1.142.8a83.415,83.415,0,0,1,10.466,8.86,82.68,82.68,0,0,1,7.244,8.283c.414.536.809,1.071,1.141,1.524a81.489,81.489,0,0,1,11.717,22.925,81.5,81.5,0,0,1,3.994,25.433V-83.5ZM-4047.1-145.267h74.029a3.69,3.69,0,0,0,3.679-3.652v-165.19a3.692,3.692,0,0,0-3.681-3.652h-74.046a3.692,3.692,0,0,0-3.681,3.652v165.19a3.691,3.691,0,0,0,3.679,3.652Z" transform="translate(4240.09 378.96)" fill="rgba(0,0,0,0.15)"/>
    <circle id="Ellipse_2" data-name="Ellipse 2" cx="9.109" cy="9.109" r="9.109" transform="translate(289.767 181.887)" fill="#0be881"/>
    <path id="Path_20" data-name="Path 20" d="M586.806,487.415h-6.979l-3.321-26.92h10.3Z" transform="translate(-248.309 -198.341)" fill="#fbd39d"/>
    <path id="Path_21" data-name="Path 21" d="M567.17,504.28h13.46v8.475H558.7A8.475,8.475,0,0,1,567.17,504.28Z" transform="translate(-240.638 -217.2)" fill="#3e3c4a"/>
    <path id="Path_22" data-name="Path 22" d="M647.806,487.415h-6.979l-3.321-26.92h10.3Z" transform="translate(-274.583 -198.341)" fill="#fbd39d"/>
    <path id="Path_23" data-name="Path 23" d="M628.17,504.28h13.46v8.475H619.695A8.475,8.475,0,0,1,628.17,504.28Z" transform="translate(-266.911 -217.2)" fill="#3e3c4a"/>
    <path id="Path_24" data-name="Path 24" d="M697.3,472.3a6.116,6.116,0,0,1,2.568-9.019l23.725-65.392,11.674,6.372-27.089,62.491A6.149,6.149,0,0,1,697.3,472.3Z" transform="translate(-393.814 -279.501)" fill="#fbd39d"/>
    <path id="Path_25" data-name="Path 25" d="M807.529,490.864a6.116,6.116,0,0,1-1.647-9.232l-7.349-69.174,13.286.607,3.054,68.042a6.149,6.149,0,0,1-7.344,9.757Z" transform="translate(-437.871 -285.776)" fill="#fbd39d"/>
    <circle id="Ellipse_3" data-name="Ellipse 3" cx="13.982" cy="13.982" r="13.982" transform="translate(334.481 78.312)" fill="#fbd39d"/>
    <path id="Path_26" data-name="Path 26" d="M782.287,463.6H740.133l.051-.328c.076-.49,7.513-49.209,2.028-65.147a6.725,6.725,0,0,1,3.455-8.3h0c7.84-3.692,22.89-8.238,35.592,2.795a16.074,16.074,0,0,1,5.385,13.319Z" transform="translate(-412.718 -274.24)" fill="#0be881"/>
    <path id="Path_27" data-name="Path 27" d="M740,424.8l-18.978-3.85,8.9-21.081a7.968,7.968,0,1,1,15.431,3.984Z" transform="translate(-404.485 -277.777)" fill="#0be881"/>
    <path id="Path_28" data-name="Path 28" d="M796.068,433.061l-1.141-26.154c-.865-4.916,1.949-9.564,6.278-10.324s8.557,2.653,9.426,7.606l4.288,24.438Z" transform="translate(-436.251 -278.893)" fill="#0be881"/>
    <path id="Path_29" data-name="Path 29" d="M779.166,517.049c6.783,25.832,7.523,58.676,5.693,94.5l-9.109-1.139L759.241,542.1l-9.109,69.453-10.247-.569c-3.061-37.59-6.042-69.86-1.139-91.086Z" transform="translate(-410.999 -330.825)" fill="#3e3c4a"/>
    <path id="Path_30" data-name="Path 30" d="M773.618,347.405c-2.609,2.779-7.453,1.287-7.793-2.509a4.583,4.583,0,0,1,.006-.886c.176-1.681,1.147-3.208.914-4.983a2.613,2.613,0,0,0-.478-1.223c-2.079-2.783-6.958,1.245-8.92-1.275-1.2-1.545.211-3.978-.712-5.7-1.218-2.279-4.827-1.155-7.09-2.4-2.518-1.389-2.367-5.252-.71-7.6a11.957,11.957,0,0,1,9.065-4.615,24.315,24.315,0,0,1,10.243,2c3.712,1.447,7.394,3.446,9.678,6.71,2.778,3.97,3.046,9.307,1.656,13.948C778.633,341.687,775.748,345.136,773.618,347.405Z" transform="translate(-415.941 -244.305)" fill="#3e3c4a"/>
    <rect id="Rectangle_16" data-name="Rectangle 16" width="81.408" height="1.139" transform="translate(189.288 114.649)" fill="rgba(0,0,0,0.15)"/>
    <rect id="Rectangle_17" data-name="Rectangle 17" width="81.408" height="1.139" transform="translate(189.572 179.61)" fill="rgba(0,0,0,0.15)"/>
    <rect id="Rectangle_18" data-name="Rectangle 18" width="1.139" height="173.063" transform="translate(214.906 61.198)" fill="rgba(0,0,0,0.15)"/>
    <rect id="Rectangle_19" data-name="Rectangle 19" width="1.139" height="173.063" transform="translate(243.37 61.198)" fill="rgba(0,0,0,0.15)"/>
  </g>
</svg>