<svg xmlns="http://www.w3.org/2000/svg" width="455.935" height="303" viewBox="0 0 455.935 303">
  <g id="undraw_forgot_password_re_hxwm" transform="translate(0)">
    <path id="Exclusion_6" data-name="Exclusion 6" d="M49.812,0,2.2,19.75c-.036.043-.075.083-.113.124l-.018.019c-.045.047-.089.094-.132.143L0,20.74q.146.205.3.413l.044.06c.108.15.217.3.322.447a.8.8,0,0,1,.191-.6.569.569,0,0,1,.432-.193.737.737,0,0,1,.184.024,26.562,26.562,0,0,0,6.766.817A67.9,67.9,0,0,0,22.08,19.767l.708-.149a64.723,64.723,0,0,1,13.151-1.733h.017a29.952,29.952,0,0,1,6.017.575A18.633,18.633,0,0,1,54.59,27.1c2,3.38,3.061,7.241,4.086,10.974l0,.011c.311,1.133.663,2.418,1.03,3.627.125.412.259.828.41,1.273a.391.391,0,0,1,.038-.024l.014-.008a37.444,37.444,0,0,1,27.073-3.542.679.679,0,0,1,.518.773.654.654,0,0,1-.63.614.757.757,0,0,1-.183-.024,36,36,0,0,0-26.022,3.35.726.726,0,0,1-.353.094h-.013a30.065,30.065,0,0,0,7.458,11.414A52,52,0,0,0,82,64.735a116.884,116.884,0,0,0,22.937,8.031,121.573,121.573,0,0,0,24.081,3.217.679.679,0,0,1,.007-.16,10.1,10.1,0,0,1,5.228-7.9.619.619,0,0,1,.294-.077.665.665,0,0,1,.619.5.491.491,0,0,1-.27.575,9,9,0,0,0-4.7,7.1c.963.022,1.915.033,2.83.033a120.808,120.808,0,0,0,24.087-2.417.743.743,0,0,1,.9.7.556.556,0,0,1-.468.635,123.042,123.042,0,0,1-24.488,2.468,123.094,123.094,0,0,1-17.981-1.325,122.674,122.674,0,0,1-23.282-5.783c-2.312,7.581,1.493,15.591,9.047,19.047a.569.569,0,0,1,.357.663.728.728,0,0,1-.689.568.752.752,0,0,1-.312-.071c-8.2-3.77-12.277-12.468-9.7-20.682A107.705,107.705,0,0,1,79.418,65.03a48.667,48.667,0,0,1-13.587-9.613A32.9,32.9,0,0,1,58.2,41.5c-.29-.985-.567-2-.836-2.989l-.016-.06c-1.1-4.035-2.23-8.206-4.619-11.685a15.93,15.93,0,0,0-6.562-5.451,22.884,22.884,0,0,0-8.32-1.968c-.6-.035-1.227-.052-1.854-.052a69.149,69.149,0,0,0-13.915,1.917l-.037.008A68.9,68.9,0,0,1,8.232,23.124a27.679,27.679,0,0,1-7.053-.859.805.805,0,0,1-.1-.032c.088.119.158.216.211.3l.023.031a.877.877,0,0,0,.059.076c.039.061.081.117.121.171s.065.089.1.134c1.312,1.782,2.623,3.538,3.9,5.221,0,.011,0,.011.02.017C16.756,42.955,27.89,54.738,39.546,64.2l.2.161c.3.243.637.519.981.775a136.272,136.272,0,0,0,18.387,12.44A120.89,120.89,0,0,0,70.02,82.973a99.879,99.879,0,0,0,30.3,7.727c2.963.275,5.954.415,8.888.415a85.305,85.305,0,0,0,26.108-3.946,69.644,69.644,0,0,0,22.99-12.361c.445-.364.841-.695,1.209-1.01-.655-.121-1.182-.221-1.66-.316a139.665,139.665,0,0,1-21.771-6.02c-.52-.179-1.075-.381-1.651-.6a146.251,146.251,0,0,1-46.171-28.1,143.145,143.145,0,0,1-14.954-15.67c-1.055-1.289-2.159-2.674-3.133-3.9-5.31-6.66-10.8-13.545-17.7-17.751A24.319,24.319,0,0,0,49.813,0h0ZM.668,21.664v.005a.66.66,0,0,0,.413.563l-.032-.045c-.058-.081-.117-.161-.177-.242s-.138-.186-.2-.277Z" transform="translate(289.909 289.99) rotate(-135)" fill="rgba(0,0,0,0.16)"/>
    <path id="Exclusion_5" data-name="Exclusion 5" d="M49.812,0,2.2,19.75c-.036.043-.075.083-.113.124l-.018.019c-.045.047-.089.094-.132.143L0,20.739q.146.205.3.413l.044.06c.108.15.217.3.322.447a.8.8,0,0,1,.191-.6.569.569,0,0,1,.432-.193.737.737,0,0,1,.184.024,26.562,26.562,0,0,0,6.766.817A67.9,67.9,0,0,0,22.08,19.767l.708-.149a64.722,64.722,0,0,1,13.151-1.733h.017a29.952,29.952,0,0,1,6.017.575A18.633,18.633,0,0,1,54.59,27.1c2,3.38,3.061,7.241,4.086,10.974l0,.011c.311,1.133.663,2.418,1.03,3.627.125.412.259.828.41,1.273a.391.391,0,0,1,.038-.024l.014-.008a37.444,37.444,0,0,1,27.073-3.542.679.679,0,0,1,.518.773.654.654,0,0,1-.63.614.757.757,0,0,1-.183-.024,36,36,0,0,0-26.022,3.35.726.726,0,0,1-.353.094h-.013a30.065,30.065,0,0,0,7.458,11.414A52,52,0,0,0,82,64.735a116.884,116.884,0,0,0,22.937,8.031,121.574,121.574,0,0,0,24.081,3.217.679.679,0,0,1,.007-.16,10.1,10.1,0,0,1,5.228-7.9.619.619,0,0,1,.294-.077.665.665,0,0,1,.619.5.491.491,0,0,1-.27.575,9,9,0,0,0-4.7,7.1c.963.022,1.915.033,2.83.033a120.809,120.809,0,0,0,24.087-2.417.743.743,0,0,1,.9.7.556.556,0,0,1-.468.635,123.042,123.042,0,0,1-24.488,2.468,123.094,123.094,0,0,1-17.981-1.325,122.673,122.673,0,0,1-23.282-5.783c-2.312,7.581,1.493,15.591,9.047,19.047a.569.569,0,0,1,.357.663.728.728,0,0,1-.689.568.752.752,0,0,1-.312-.071c-8.2-3.77-12.277-12.468-9.7-20.682A107.7,107.7,0,0,1,79.418,65.03a48.667,48.667,0,0,1-13.587-9.613A32.9,32.9,0,0,1,58.2,41.5c-.29-.985-.567-2-.836-2.989l-.016-.06c-1.1-4.035-2.23-8.206-4.619-11.685a15.93,15.93,0,0,0-6.562-5.451,22.884,22.884,0,0,0-8.32-1.968c-.6-.035-1.227-.052-1.854-.052a69.148,69.148,0,0,0-13.915,1.917l-.037.008A68.9,68.9,0,0,1,8.232,23.124a27.679,27.679,0,0,1-7.053-.859.805.805,0,0,1-.1-.032c.088.119.158.216.211.3l.023.031a.877.877,0,0,0,.059.076c.039.061.081.117.121.171s.065.089.1.134c1.312,1.782,2.623,3.538,3.9,5.221,0,.011,0,.011.02.017C16.756,42.955,27.89,54.738,39.546,64.2l.2.161c.3.243.637.519.981.775a136.273,136.273,0,0,0,18.387,12.44A120.891,120.891,0,0,0,70.02,82.973a99.879,99.879,0,0,0,30.3,7.727c2.963.275,5.954.415,8.888.415a85.305,85.305,0,0,0,26.108-3.946,69.644,69.644,0,0,0,22.99-12.361c.445-.364.841-.695,1.209-1.01-.655-.121-1.182-.221-1.66-.316a139.666,139.666,0,0,1-21.771-6.02c-.52-.179-1.075-.381-1.651-.6a146.251,146.251,0,0,1-46.171-28.1,143.145,143.145,0,0,1-14.954-15.67c-1.055-1.289-2.159-2.674-3.133-3.9-5.31-6.66-10.8-13.545-17.7-17.751A24.319,24.319,0,0,0,49.813,0h0ZM.668,21.664v.005a.66.66,0,0,0,.413.563l-.032-.045c-.058-.081-.117-.161-.177-.242s-.138-.186-.2-.277Z" transform="translate(312.15 288.328) rotate(180)" fill="rgba(0,0,0,0.16)"/>
    <path id="Path_44" data-name="Path 44" d="M127.225,558.642c6.668-32.242,15-42.991,15-42.991l3.184-2.469,3.829-2.974-.019-.382.908-.309.213-.166.35-.268.056.06.119.123,17.328-5.89,21.984-7.467,10.179-13.232a17.607,17.607,0,0,1,14.085-6.87l32.511.241a17.607,17.607,0,0,1,11.844,4.7l21.369,19.821,33.3,15.9.056-.056.35.25,5.145,2.46-.212,1.105,3.184,2.3s8.335,10,15,40c1.7,7.633,2.531,24.008,2.833,44.187a7.7,7.7,0,0,1-7.7,7.816H132.082a7.7,7.7,0,0,1-7.7-7.808C124.678,584.764,125.513,566.92,127.225,558.642Z" transform="translate(116.11 -311.529)" fill="#3e3c4a"/>
    <path id="Path_45" data-name="Path 45" d="M781.633,191.732a26.089,26.089,0,1,1,0,52.178H587.206a26.089,26.089,0,1,1,0-52.178Z" transform="translate(-561.117 -163.614)" fill="#dfe6e3"/>
    <path id="Path_46" data-name="Path 46" d="M787.369,202.747a20.809,20.809,0,1,1,0,41.618H592.942a20.809,20.809,0,1,1,0-41.618Z" transform="translate(-566.853 -169.35)" fill="#eef6f2"/>
    <ellipse id="ab6171fa-7d69-4734-b81c-8dff60f9761b" cx="42.593" cy="42.593" rx="42.593" ry="42.593" transform="translate(299.113 66.878)" fill="#fbd39d"/>
    <path id="Path_47" data-name="Path 47" d="M338.836,444.663q.273-.6.544-1.206c-.07,0-.139.012-.208.014Z" transform="translate(13.765 -294.686)" fill="#2f2e41"/>
    <path id="Path_48" data-name="Path 48" d="M335.288,254.708c-2.154-1.718-4.672-3.3-7.426-3.211s-5.547,2.576-4.977,5.272a43.769,43.769,0,0,0-52.673-19.751c-6.845,2.415-13.558,7.247-15.131,14.333-.4,1.819-.49,3.814-1.626,5.291-1.432,1.862-4.172,2.284-6.428,1.629l-.068-.02a2.012,2.012,0,0,0-2.432,2.841l1.937,3.612a15.521,15.521,0,0,1-7.395-.157,2.011,2.011,0,0,0-2.135,3.129,35.047,35.047,0,0,0,27.945,14.364c7.739-.047,15.557-2.714,23.089-.935a20.056,20.056,0,0,1,13.49,28.155c2.314-2.531,6.787-1.932,9.153.55s2.979,6.185,2.741,9.606c-.365,5.232-2.415,10.162-4.576,14.96,18.118-.57,35.255-13.28,41.024-30.47C355.593,286.643,349.522,266.063,335.288,254.708Z" transform="translate(50.195 -185.893)" fill="#3e3c4a"/>
    <path id="Path_49" data-name="Path 49" d="M106.578,495.253l-11.946,65-7.168.624Z" transform="translate(307.435 -257.875)" opacity="0.2"/>
    <path id="Path_50" data-name="Path 50" d="M322.128,485.026l11.946,69.852,7.168.671Z" transform="translate(-39.705 -252.549)" opacity="0.2"/>
    <path id="Path_51" data-name="Path 51" d="M245.231,180.008a4.246,4.246,0,0,0,5.683-2.492,4.312,4.312,0,0,0-2.26-5.883,4.529,4.529,0,0,0-3.423,8.375Zm4.388-13.172,1.821.76a1.965,1.965,0,0,0,2.5-.915l.09-.176c1.96-3.534,2.184-7.829.663-12.76-1.409-4.423-1.994-7.533-.817-10.351,1.36-3.258,4.266-4.279,7.97-2.8,1.437.6,1.894.59,3.025,1.712a2.6,2.6,0,0,0,1.879.764,2.509,2.509,0,0,0,1.8-.788,2.563,2.563,0,0,0,.018-3.5,19.908,19.908,0,0,0-6.732-4.623c-7.96-3.324-11.967,1.583-13.8,5.974-1.793,4.3-.785,8.28.836,13.441,1.358,4.289,1.279,7.466-.264,10.626a1.956,1.956,0,0,0,1.019,2.632Z" transform="translate(130.062 -133.069)" fill="#0be881"/>
    <path id="Path_52" data-name="Path 52" d="M623.43,270.1h38.683a.932.932,0,0,0,0-1.864H623.43a.932.932,0,0,0,0,1.864Z" transform="translate(-445.86 -203.448)" fill="#0be881"/>
    <path id="Path_53" data-name="Path 53" d="M725.811,270.746h38.684a.932.932,0,0,0,0-1.864H725.811a.932.932,0,0,0,0,1.863Z" transform="translate(-597.313 -203.786)" fill="#0be881"/>
    <path id="Path_54" data-name="Path 54" d="M828.193,271.394h38.683a.932.932,0,1,0,0-1.864H828.193a.932.932,0,0,0,0,1.864Z" transform="translate(-748.767 -204.123)" fill="#0be881"/>
    <path id="Path_55" data-name="Path 55" d="M930.571,272.042h38.683a.932.932,0,1,0,0-1.863H930.571a.932.932,0,1,0,0,1.864Z" transform="translate(-900.216 -204.461)" fill="#0be881"/>
    <ellipse id="Ellipse_4" data-name="Ellipse 4" cx="7.19" cy="7.19" rx="7.19" ry="7.19" transform="translate(189.807 43.695)" fill="#0be881"/>
    <ellipse id="Ellipse_5" data-name="Ellipse 5" cx="7.19" cy="7.19" rx="7.19" ry="7.19" transform="translate(140.439 43.695)" fill="#0be881"/>
    <ellipse id="Ellipse_6" data-name="Ellipse 6" cx="7.19" cy="7.19" rx="7.19" ry="7.19" transform="translate(91.07 43.695)" fill="#0be881"/>
    <ellipse id="Ellipse_7" data-name="Ellipse 7" cx="7.19" cy="7.19" rx="7.19" ry="7.19" transform="translate(41.701 43.695)" fill="#0be881"/>
  </g>
</svg>